{
  "accessors": [
    {
      "bufferView": 2,
      "componentType": 5126,
      "count": 2304,
      "max": [
        53892.7421875,
        692321.0,
        53892.7421875
      ],
      "min": [
        -53892.7421875,
        -98903.0078125,
        -83715.125
      ],
      "type": "VEC3"
    },
    {
      "bufferView": 2,
      "byteOffset": 27648,
      "componentType": 5126,
      "count": 2304,
      "max": [
        1.0,
        1.0,
        1.0
      ],
      "min": [
        -1.0,
        -1.0,
        -1.0
      ],
      "type": "VEC3"
    },
    {
      "bufferView": 1,
      "componentType": 5126,
      "count": 2304,
      "max": [
        0.9958469867706299,
        1.0
      ],
      "min": [
        0.0,
        0.00019401311874389648
      ],
      "type": "VEC2"
    },
    {
      "bufferView": 1,
      "byteOffset": 18432,
      "componentType": 5126,
      "count": 2304,
      "max": [
        0.9958469867706299,
        1.0
      ],
      "min": [
        0.0,
        0.00019401311874389648
      ],
      "type": "VEC2"
    },
    {
      "bufferView": 1,
      "byteOffset": 36864,
      "componentType": 5126,
      "count": 2304,
      "max": [
        0.9958469867706299,
        1.0
      ],
      "min": [
        0.0,
        0.00019401311874389648
      ],
      "type": "VEC2"
    },
    {
      "bufferView": 0,
      "componentType": 5125,
      "count": 3936,
      "type": "SCALAR"
    }
  ],
  "asset": {
    "extras": {
      "author": "Ajaya Tamang Moktan (https://sketchfab.com/ajaa)",
      "license": "CC-BY-4.0 (http://creativecommons.org/licenses/by/4.0/)",
      "source": "https://sketchfab.com/3d-models/lowpoly-3d-train-eefc996de2be46fa8eccc6853c765aa4",
      "title": "LowPoly 3D Train"
    },
    "generator": "Sketchfab-17.7.0",
    "version": "2.0"
  },
  "bufferViews": [
    {
      "buffer": 0,
      "byteLength": 15744,
      "name": "floatBufferViews",
      "target": 34963
    },
    {
      "buffer": 0,
      "byteLength": 55296,
      "byteOffset": 15744,
      "byteStride": 8,
      "name": "floatBufferViews",
      "target": 34962
    },
    {
      "buffer": 0,
      "byteLength": 55296,
      "byteOffset": 71040,
      "byteStride": 12,
      "name": "floatBufferViews",
      "target": 34962
    }
  ],
  "buffers": [
    {
      "byteLength": 126336,
      "uri": "passenger-train.bin"
    }
  ],
  "images": [
    {
      "uri": "textures/train-base-color.jpeg"
    },
    {
      "uri": "textures/train-metallic-roughness.png"
    }
  ],
  "materials": [
    {
      "doubleSided": true,
      "name": "TT_checker_2048x2048_UV_GRID_001",
      "pbrMetallicRoughness": {
        "baseColorTexture": {
          "index": 0
        },
        "metallicRoughnessTexture": {
          "index": 1
        }
      }
    }
  ],
  "meshes": [
    {
      "name": "Object_0",
      "primitives": [
        {
          "attributes": {
            "NORMAL": 1,
            "POSITION": 0,
            "TEXCOORD_0": 2,
            "TEXCOORD_1": 3,
            "TEXCOORD_2": 4
          },
          "indices": 5,
          "material": 0,
          "mode": 4
        }
      ]
    }
  ],
  "nodes": [
    {
      "children": [
        1
      ],
      "matrix": [
        1.0,
        0.0,
        0.0,
        0.0,
        0.0,
        2.220446049250313e-16,
        -1.0,
        0.0,
        0.0,
        1.0,
        2.220446049250313e-16,
        0.0,
        0.0,
        0.0,
        0.0,
        1.0
      ],
      "name": "Sketchfab_model"
    },
    {
      "children": [
        2
      ],
      "name": "root"
    },
    {
      "children": [
        3
      ],
      "matrix": [
        1.0,
        0.0,
        0.0,
        0.0,
        0.0,
        2.220446049250313e-16,
        1.0,
        0.0,
        0.0,
        -1.0,
        2.220446049250313e-16,
        0.0,
        0.0,
        0.0,
        0.0,
        1.0
      ],
      "name": "GLTF_SceneRootNode"
    },
    {
      "children": [
        4
      ],
      "matrix": [
        0.009999998845160007,
        0.0,
        0.0,
        0.0,
        0.0,
        8.429369291789587e-10,
        0.009999999776482547,
        0.0,
        0.0,
        -0.009999999776482547,
        8.429369291789587e-10,
        0.0,
        0.0,
        0.0,
        0.0,
        1.0
      ],
      "name": "scene_7"
    },
    {
      "children": [
        5
      ],
      "matrix": [
        100.0,
        0.0,
        0.0,
        0.0,
        0.0,
        100.0,
        0.0,
        0.0,
        0.0,
        0.0,
        100.0,
        0.0,
        0.0,
        0.0,
        0.0,
        1.0
      ],
      "name": "Meshes_6"
    },
    {
      "children": [
        6
      ],
      "matrix": [
        0.24885845184326172,
        0.0,
        -0.0,
        0.0,
        -0.0,
        2.0977198388575802e-08,
        -0.24885845184326086,
        0.0,
        0.0,
        0.24885845184326086,
        2.0977198388575802e-08,
        0.0,
        0.0,
        0.0,
        0.0,
        1.0
      ],
      "name": "Sketchfab_model_5"
    },
    {
      "children": [
        7
      ],
      "matrix": [
        0.009999999776482582,
        0.0,
        0.0,
        0.0,
        0.0,
        8.429369291789587e-10,
        0.009999999776482547,
        0.0,
        0.0,
        -0.009999999776482547,
        8.429369291789587e-10,
        0.0,
        0.0,
        0.0,
        0.0,
        1.0
      ],
      "name": "_6579e5d4a7a4819b11dc0c0582285e6_fbx_4"
    },
    {
      "children": [
        8
      ],
      "name": "RootNode_3"
    },
    {
      "children": [
        9
      ],
      "matrix": [
        0.009999999776482582,
        0.0,
        -0.0,
        0.0,
        -0.0,
        -0.009999999776482466,
        -1.5099579915306658e-09,
        0.0,
        0.0,
        1.5099579915306658e-09,
        -0.009999999776482466,
        0.0,
        0.0,
        0.0,
        0.0,
        1.0
      ],
      "name": "train_008_2"
    },
    {
      "children": [
        10
      ],
      "name": "train_008_TT_checker_2048x2048_UV_GRID_001_0_1"
    },
    {
      "mesh": 0,
      "name": "Object_10"
    }
  ],
  "samplers": [
    {
      "magFilter": 9729,
      "minFilter": 9987,
      "wrapS": 10497,
      "wrapT": 10497
    }
  ],
  "scene": 0,
  "scenes": [
    {
      "name": "Sketchfab_Scene",
      "nodes": [
        0
      ]
    }
  ],
  "textures": [
    {
      "sampler": 0,
      "source": 0
    },
    {
      "sampler": 0,
      "source": 1
    }
  ]
}
