{
 "asset": {
  "version": "2.0",
  "generator": "bake_lite.py",
  "extras": {
   "author": "nirvaraj (https://sketchfab.com/nirvaraj)",
   "license": "CC-BY-4.0 (http://creativecommons.org/licenses/by/4.0/)",
   "source": "https://sketchfab.com/3d-models/subway-surfers-coin-0e9142deb008408f8814acd71abf8018",
   "title": "Subway Surfers Coin",
   "note": "baked from scene.gltf by bake_lite.py: same mesh, in game space; the atlas cut down to what the coin uses"
  }
 },
 "scene": 0,
 "scenes": [
  {
   "nodes": [
    0
   ]
  }
 ],
 "nodes": [
  {
   "mesh": 0,
   "name": "coin"
  }
 ],
 "meshes": [
  {
   "name": "coin",
   "primitives": [
    {
     "attributes": {
      "POSITION": 0,
      "NORMAL": 1,
      "TEXCOORD_0": 2
     },
     "indices": 3,
     "material": 0,
     "mode": 4
    }
   ]
  }
 ],
 "accessors": [
  {
   "bufferView": 1,
   "componentType": 5126,
   "count": 82,
   "type": "VEC3",
   "min": [
    -0.42,
    -0.41991867003161765,
    -0.09406247317405
   ],
   "max": [
    0.42,
    0.41991867003161765,
    0.09406247317405
   ]
  },
  {
   "bufferView": 2,
   "componentType": 5126,
   "count": 82,
   "type": "VEC3"
  },
  {
   "bufferView": 3,
   "componentType": 5126,
   "count": 82,
   "type": "VEC2"
  },
  {
   "bufferView": 0,
   "componentType": 5123,
   "count": 240,
   "type": "SCALAR"
  }
 ],
 "bufferViews": [
  {
   "buffer": 0,
   "byteOffset": 0,
   "byteLength": 480,
   "target": 34963
  },
  {
   "buffer": 0,
   "byteOffset": 480,
   "byteLength": 984,
   "target": 34962
  },
  {
   "buffer": 0,
   "byteOffset": 1464,
   "byteLength": 984,
   "target": 34962
  },
  {
   "buffer": 0,
   "byteOffset": 2448,
   "byteLength": 656,
   "target": 34962
  }
 ],
 "buffers": [
  {
   "byteLength": 3104,
   "uri": "coin.bin"
  }
 ],
 "materials": [
  {
   "name": "coin",
   "pbrMetallicRoughness": {
    "baseColorTexture": {
     "index": 0
    },
    "metallicFactor": 0.0
   }
  }
 ],
 "textures": [
  {
   "sampler": 0,
   "source": 0
  }
 ],
 "images": [
  {
   "uri": "coin-texture.png"
  }
 ],
 "samplers": [
  {
   "magFilter": 9729,
   "minFilter": 9987,
   "wrapS": 33071,
   "wrapT": 33071
  }
 ]
}