{
  "accessors": [
    {
      "bufferView": 2,
      "componentType": 5126,
      "count": 696,
      "max": [
        1.8903510570526123,
        1.7704739570617676,
        4.666469097137451
      ],
      "min": [
        -1.8875329494476318,
        -3.3733561038970947,
        0.007674000225961208
      ],
      "type": "VEC3"
    },
    {
      "bufferView": 2,
      "byteOffset": 8352,
      "componentType": 5126,
      "count": 696,
      "max": [
        0.9936408996582031,
        0.9962220191955566,
        0.9879838228225708
      ],
      "min": [
        -0.9936408996582031,
        -0.9971928596496582,
        -0.9999986886978149
      ],
      "type": "VEC3"
    },
    {
      "bufferView": 1,
      "componentType": 5126,
      "count": 696,
      "max": [
        0.42937999963760376,
        0.9954649806022644
      ],
      "min": [
        0.0026420000940561295,
        0.4410820007324219
      ],
      "type": "VEC2"
    },
    {
      "bufferView": 0,
      "componentType": 5125,
      "count": 1932,
      "type": "SCALAR"
    }
  ],
  "asset": {
    "extras": {
      "author": "Rajio123 (https://sketchfab.com/Rajio123)",
      "license": "CC-BY-4.0 (http://creativecommons.org/licenses/by/4.0/)",
      "source": "https://sketchfab.com/3d-models/subway-surfers-dog-e39f32904e1d474ab99d0a301bc37537",
      "title": "Subway Surfers Dog"
    },
    "generator": "Sketchfab-12.66.0",
    "version": "2.0"
  },
  "bufferViews": [
    {
      "buffer": 0,
      "byteLength": 7728,
      "name": "floatBufferViews",
      "target": 34963
    },
    {
      "buffer": 0,
      "byteLength": 5568,
      "byteOffset": 7728,
      "byteStride": 8,
      "name": "floatBufferViews",
      "target": 34962
    },
    {
      "buffer": 0,
      "byteLength": 16704,
      "byteOffset": 13296,
      "byteStride": 12,
      "name": "floatBufferViews",
      "target": 34962
    }
  ],
  "buffers": [
    {
      "byteLength": 30000,
      "uri": "chase-dog.bin"
    }
  ],
  "images": [
    {
      "uri": "textures/dog-base-color.png"
    }
  ],
  "materials": [
    {
      "doubleSided": true,
      "name": "enemies.001",
      "pbrMetallicRoughness": {
        "baseColorTexture": {
          "index": 0
        },
        "metallicFactor": 0.0
      }
    }
  ],
  "meshes": [
    {
      "name": "Object_0",
      "primitives": [
        {
          "attributes": {
            "NORMAL": 1,
            "POSITION": 0,
            "TEXCOORD_0": 2
          },
          "indices": 3,
          "material": 0,
          "mode": 4
        }
      ]
    }
  ],
  "nodes": [
    {
      "children": [
        1
      ],
      "matrix": [
        1.0,
        0.0,
        0.0,
        0.0,
        0.0,
        2.220446049250313e-16,
        -1.0,
        0.0,
        0.0,
        1.0,
        2.220446049250313e-16,
        0.0,
        0.0,
        0.0,
        0.0,
        1.0
      ],
      "name": "Sketchfab_model"
    },
    {
      "children": [
        2
      ],
      "name": "Dog.obj.cleaner.materialmerger.gles"
    },
    {
      "mesh": 0,
      "name": "Object_2"
    }
  ],
  "samplers": [
    {
      "magFilter": 9729,
      "minFilter": 9987,
      "wrapS": 10497,
      "wrapT": 10497
    }
  ],
  "scene": 0,
  "scenes": [
    {
      "name": "Sketchfab_Scene",
      "nodes": [
        0
      ]
    }
  ],
  "textures": [
    {
      "sampler": 0,
      "source": 0
    }
  ]
}
